HIERARCHY
ROOT hip
{
  OFFSET 0 0 0
  CHANNELS 6 Xposition Yposition Zposition Zrotation Yrotation Xrotation
  JOINT abdomen
  {
    OFFSET 0 20.6881 -0.73152
    CHANNELS 3 Zrotation Xrotation Yrotation
    JOINT chest
    {
      OFFSET 0 11.7043 -0.48768
      CHANNELS 3 Zrotation Xrotation Yrotation
      JOINT neck
      {
        OFFSET 0 22.1894 -2.19456
        CHANNELS 3 Zrotation Xrotation Yrotation
        JOINT head
        {
          OFFSET -0.24384 7.07133 1.2192
          CHANNELS 3 Zrotation Xrotation Yrotation
          JOINT leftEye
          {
            OFFSET 4.14528 8.04674 8.04672
            CHANNELS 3 Zrotation Xrotation Yrotation
            End Site
            {
              OFFSET 1 0 0
            }
          }
          JOINT rightEye
          {
            OFFSET -3.6576 8.04674 8.04672
            CHANNELS 3 Zrotation Xrotation Yrotation
            End Site
            {
              OFFSET 1 0 0
            }
          }
        }
      }
      JOINT rCollar
      {
        OFFSET -2.68224 19.2634 -4.8768
        CHANNELS 3 Zrotation Xrotation Yrotation
        JOINT rShldr
        {
          OFFSET -8.77824 -1.95073 1.46304
          CHANNELS 3 Zrotation Xrotation Yrotation
          JOINT rForeArm
          {
            OFFSET -28.1742 -1.7115 0.48768
            CHANNELS 3 Zrotation Xrotation Yrotation
            JOINT rHand
            {
              OFFSET -22.5879 0.773209 7.07136
              CHANNELS 3 Zrotation Xrotation Yrotation
              JOINT rThumb1
              {
                OFFSET -1.2192 -0.487915 3.41376
                CHANNELS 3 Zrotation Xrotation Yrotation
                JOINT rThumb2
                {
                  OFFSET -3.37035 -0.52449 3.41376
                  CHANNELS 3 Zrotation Xrotation Yrotation
                  End Site
                  {
                    OFFSET -1.78271 -1.18214 1.43049
                  }
                }
              }
              JOINT rIndex1
              {
                OFFSET -7.75947 0.938293 5.60832
                CHANNELS 3 Zrotation Xrotation Yrotation
                JOINT rIndex2
                {
                  OFFSET -2.54057 -0.884171 1.56538
                  CHANNELS 3 Zrotation Xrotation Yrotation
                  End Site
                  {
                    OFFSET -1.62519 -0.234802 1.16502
                  }
                }
              }
              JOINT rMid1
              {
                OFFSET -8.24714 1.18213 3.41376
                CHANNELS 3 Zrotation Xrotation Yrotation
                JOINT rMid2
                {
                  OFFSET -3.10165 -0.590103 1.0647
                  CHANNELS 3 Zrotation Xrotation Yrotation
                  End Site
                  {
                    OFFSET -2.48547 -0.328903 0.83742
                  }
                }
              }
              JOINT rRing1
              {
                OFFSET -8.82822 0.546677 1.51678
                CHANNELS 3 Zrotation Xrotation Yrotation
                JOINT rRing2
                {
                  OFFSET -2.60934 -0.819778 -0.0198488
                  CHANNELS 3 Zrotation Xrotation Yrotation
                  End Site
                  {
                    OFFSET -2.33842 -0.294052 0.168128
                  }
                }
              }
              JOINT rPinky1
              {
                OFFSET -8.27202 -0.0477905 -0.4584
                CHANNELS 3 Zrotation Xrotation Yrotation
                JOINT rPinky2
                {
                  OFFSET -1.82734 -0.647385 -0.700984
                  CHANNELS 3 Zrotation Xrotation Yrotation
                  End Site
                  {
                    OFFSET -1.69225 -0.51767 -0.607171
                  }
                }
              }
            }
          }
        }
      }
      JOINT lCollar
      {
        OFFSET 2.68224 19.2634 -4.8768
        CHANNELS 3 Zrotation Xrotation Yrotation
        JOINT lShldr
        {
          OFFSET 8.77824 -1.95073 1.46304
          CHANNELS 3 Zrotation Xrotation Yrotation
          JOINT lForeArm
          {
            OFFSET 28.1742 -1.7115 0.48768
            CHANNELS 3 Zrotation Xrotation Yrotation
            JOINT lHand
            {
              OFFSET 22.5879 0.773209 7.07136
              CHANNELS 3 Zrotation Xrotation Yrotation
              JOINT lThumb1
              {
                OFFSET 1.2192 -0.487915 3.41376
                CHANNELS 3 Zrotation Xrotation Yrotation
                JOINT lThumb2
                {
                  OFFSET 3.37035 -0.52449 3.41376
                  CHANNELS 3 Zrotation Xrotation Yrotation
                  End Site
                  {
                    OFFSET 1.78271 -1.18214 1.43049
                  }
                }
              }
              JOINT lIndex1
              {
                OFFSET 7.75947 0.938293 5.60832
                CHANNELS 3 Zrotation Xrotation Yrotation
                JOINT lIndex2
                {
                  OFFSET 2.54057 -0.884171 1.56538
                  CHANNELS 3 Zrotation Xrotation Yrotation
                  End Site
                  {
                    OFFSET 1.62519 -0.234802 1.16502
                  }
                }
              }
              JOINT lMid1
              {
                OFFSET 8.24714 1.18213 3.41376
                CHANNELS 3 Zrotation Xrotation Yrotation
                JOINT lMid2
                {
                  OFFSET 3.10165 -0.590103 1.0647
                  CHANNELS 3 Zrotation Xrotation Yrotation
                  End Site
                  {
                    OFFSET 2.48547 -0.328903 0.83742
                  }
                }
              }
              JOINT lRing1
              {
                OFFSET 8.82822 0.546677 1.51678
                CHANNELS 3 Zrotation Xrotation Yrotation
                JOINT lRing2
                {
                  OFFSET 2.60934 -0.819778 -0.0198488
                  CHANNELS 3 Zrotation Xrotation Yrotation
                  End Site
                  {
                    OFFSET 2.33842 -0.294052 0.168128
                  }
                }
              }
              JOINT lPinky1
              {
                OFFSET 8.27202 -0.0477905 -0.4584
                CHANNELS 3 Zrotation Xrotation Yrotation
                JOINT lPinky2
                {
                  OFFSET 1.82734 -0.647385 -0.700984
                  CHANNELS 3 Zrotation Xrotation Yrotation
                  End Site
                  {
                    OFFSET 1.69225 -0.51767 -0.607171
                  }
                }
              }
            }
          }
        }
      }
    }
  }
  JOINT rButtock
  {
    OFFSET -8.77824 4.35084 1.2192
    CHANNELS 3 Zrotation Xrotation Yrotation
    JOINT rThigh
    {
      OFFSET 0 -1.70687 -2.19456
      CHANNELS 3 Zrotation Xrotation Yrotation
      JOINT rShin
      {
        OFFSET 0 -36.8199 0.73152
        CHANNELS 3 Zrotation Xrotation Yrotation
        JOINT rFoot
        {
          OFFSET 0.73152 -45.1104 -5.12064
          CHANNELS 3 Zrotation Xrotation Yrotation
          End Site
          {
            OFFSET -1.1221 -3.69964 12.103
          }
        }
      }
    }
  }
  JOINT lButtock
  {
    OFFSET 8.77824 4.35084 1.2192
    CHANNELS 3 Zrotation Xrotation Yrotation
    JOINT lThigh
    {
      OFFSET 0 -1.70687 -2.19456
      CHANNELS 3 Zrotation Xrotation Yrotation
      JOINT lShin
      {
        OFFSET 0 -36.8199 0.73152
        CHANNELS 3 Zrotation Xrotation Yrotation
        JOINT lFoot
        {
          OFFSET -0.73152 -45.1104 -5.12064
          CHANNELS 3 Zrotation Xrotation Yrotation
          End Site
          {
            OFFSET 1.1221 -3.69964 12.103
          }
        }
      }
    }
  }
}
MOTION
Frames:	8
Frame Time:	0.00833333
-10.4958 83.6329 33.5176 -10.8506 -60.0582 4.6453 5.8316 8.85476 -14.0789 1.37312 -7.26746 -3.99323 18.5058 -1.88501 11.3948 -15.536 -1.88896 16.3746 -0.0 0.0 0.0 -0.0 0.0 0.0 -7.80667e-14 -1.04097e-12 1.92026e-13 -27.2329 2.53481 46.7213 -23.9124 -49.5859 103.583 -28.8495 -76.5921 -36.0925 3.73193e-10 -3.47415e-09 -6.57064e-10 6.77001e-10 -5.5756e-09 -1.09444e-09 3.73192e-10 -3.47416e-09 -6.57077e-10 7.73091 5.47488 0.417314 3.73192e-10 -3.47416e-09 -6.57073e-10 2.90554 0.965183 0.102902 3.73198e-10 -3.47415e-09 -6.57068e-10 10.2786 0.731801 0.0259123 3.7319e-10 -3.47416e-09 -6.57061e-10 2.22167 -0.733487 -0.20892 -7.81315e-14 -1.04097e-12 1.9192e-13 -56.6425 -43.4203 -42.0791 16.2538 -8.92513 -30.21 1.23059 -29.8183 4.62001 1.91108e-09 -5.99519e-09 -1.822e-10 3.30079e-09 -1.01556e-08 -2.70902e-10 1.91108e-09 -5.99518e-09 -1.82195e-10 -7.73091 5.47488 -0.417314 1.91109e-09 -5.99519e-09 -1.82208e-10 -2.90554 0.965183 -0.102902 1.91107e-09 -5.99518e-09 -1.82197e-10 -10.2786 0.731801 -0.0259123 1.91109e-09 -5.99519e-09 -1.82211e-10 -2.22167 -0.733487 0.20892 -2.03217e-16 0.0 -3.88251e-19 0.81987 -2.98691 14.5556 0.0184759 2.31882 -0.10768 -2.47846 14.7458 5.81563 2.03217e-16 0.0 3.88251e-19 1.35948 16.1689 15.6217 -0.0335968 4.48152 -0.0703609 11.7967 -21.3466 38.7526
-10.5461 83.6178 33.5813 -11.0196 -60.3629 4.8009 6.06135 8.80001 -14.1932 1.37204 -7.25385 -4.02327 18.6054 -2.03737 11.5422 -15.9733 -2.03949 16.5774 -0.0 0.0 0.0 -0.0 0.0 0.0 8.57924e-15 -2.38039e-13 1.8527e-13 -27.371 2.23259 43.7954 -23.1821 -50.4937 105.8 -33.677 -77.9347 -41.0422 6.32567e-11 -4.16946e-10 -1.92944e-10 1.18119e-10 -6.12562e-10 -3.2539e-10 6.32568e-11 -4.16959e-10 -1.92958e-10 7.73091 5.47488 0.417314 6.32559e-11 -4.16956e-10 -1.92951e-10 2.90554 0.965183 0.102902 6.32628e-11 -4.16942e-10 -1.92948e-10 10.2786 0.731801 0.0259123 6.32543e-11 -4.16952e-10 -1.92943e-10 2.22167 -0.733487 -0.20892 8.53854e-15 -2.38039e-13 1.85208e-13 -56.8809 -43.9119 -41.5146 16.2983 -8.96741 -30.3047 1.20794 -29.5741 4.57435 1.29979e-09 -5.79076e-09 -4.78324e-10 2.25267e-09 -9.89558e-09 -7.97358e-10 1.29979e-09 -5.79074e-09 -4.78317e-10 -7.73091 5.47488 -0.417314 1.2998e-09 -5.79075e-09 -4.78329e-10 -2.90554 0.965183 -0.102902 1.29978e-09 -5.79074e-09 -4.78319e-10 -10.2786 0.731801 -0.0259123 1.2998e-09 -5.79075e-09 -4.78333e-10 -2.22167 -0.733487 0.20892 -2.03217e-16 0.0 -3.88251e-19 0.83395 -2.95889 14.5641 0.0181423 2.31622 -0.11098 -2.53675 14.9237 5.93209 2.03217e-16 0.0 3.88251e-19 1.26227 16.2836 15.7733 -0.0329332 4.44252 -0.0650129 11.9222 -21.4065 38.8814
-10.588 83.6265 33.6477 -11.0498 -60.638 4.8511 6.33659 8.77354 -14.3058 1.36427 -7.2496 -4.05179 18.7033 -2.16172 11.6778 -16.3772 -2.21915 16.7605 -0.0 0.0 0.0 -0.0 0.0 0.0 8.99558e-14 4.61197e-13 1.76936e-13 -27.5213 1.77151 40.8094 -22.3416 -51.3529 108.18 -40.1326 -79.2385 -47.627 -2.60997e-10 2.68477e-09 2.92635e-10 -4.66527e-10 4.41862e-09 4.79321e-10 -2.60996e-10 2.68476e-09 2.92622e-10 7.73091 5.47488 0.417314 -2.60998e-10 2.68476e-09 2.9263e-10 2.90554 0.965183 0.102902 -2.6099e-10 2.68478e-09 2.92631e-10 10.2786 0.731801 0.0259123 -2.60999e-10 2.68477e-09 2.92635e-10 2.22167 -0.733487 -0.20892 8.99312e-14 4.61197e-13 1.76899e-13 -57.1097 -44.3955 -40.9777 16.3401 -9.00719 -30.3939 1.18391 -29.3103 4.52535 6.56882e-10 -5.40206e-09 -7.51379e-10 1.14947e-09 -9.3181e-09 -1.28475e-09 6.56872e-10 -5.40203e-09 -7.5137e-10 -7.73091 5.47488 -0.417314 6.56881e-10 -5.40204e-09 -7.51381e-10 -2.90554 0.965183 -0.102902 6.56869e-10 -5.40204e-09 -7.51374e-10 -10.2786 0.731801 -0.0259123 6.56885e-10 -5.40206e-09 -7.51386e-10 -2.22167 -0.733487 0.20892 -2.03217e-16 0.0 -3.88251e-19 0.896589 -2.85731 14.5842 0.0179212 2.21681 -0.112206 -2.59825 15.1308 6.0655 2.03217e-16 0.0 3.88251e-19 1.23663 16.4021 15.9198 -0.0321671 4.4289 -0.0581414 12.0095 -21.4572 39.0103
-10.6894 83.648 33.6418 -11.6852 -60.8525 5.3122 6.68715 8.77287 -14.4625 1.3599 -7.27079 -4.0906 18.8113 -2.22694 11.8163 -16.7319 -2.41536 16.9591 -0.0 0.0 0.0 -0.0 0.0 0.0 1.22465e-13 5.73891e-13 1.89243e-13 -27.6397 1.60466 38.4563 -21.6104 -51.9913 110.145 -45.6864 -80.0542 -53.2714 -4.53676e-10 4.63335e-09 6.04299e-10 -8.15368e-10 7.59241e-09 9.96934e-10 -4.53674e-10 4.63334e-09 6.04286e-10 7.73091 5.47488 0.417314 -4.53677e-10 4.63335e-09 6.04296e-10 2.90554 0.965183 0.102902 -4.53668e-10 4.63336e-09 6.04295e-10 10.2786 0.731801 0.0259123 -4.53677e-10 4.63335e-09 6.04299e-10 2.22167 -0.733487 -0.20892 1.22445e-13 5.73891e-13 1.89193e-13 -57.2738 -44.9058 -40.384 16.372 -9.03753 -30.462 1.16223 -29.0689 4.48075 3.26878e-10 -5.05461e-09 -8.52605e-10 5.82012e-10 -8.76015e-09 -1.46777e-09 3.26866e-10 -5.05458e-09 -8.52595e-10 -7.73091 5.47488 -0.417314 3.26876e-10 -5.05459e-09 -8.52605e-10 -2.90554 0.965183 -0.102902 3.26865e-10 -5.05458e-09 -8.52599e-10 -10.2786 0.731801 -0.0259123 3.26881e-10 -5.05461e-09 -8.52611e-10 -2.22167 -0.733487 0.20892 -2.03217e-16 0.0 -3.88251e-19 1.04251 -2.68944 14.6301 0.0178873 2.0443 -0.111004 -2.65483 15.347 6.19579 2.03217e-16 0.0 3.88251e-19 1.31667 16.5355 16.0338 -0.0311716 4.4349 -0.0488989 12.0852 -21.5258 39.1372
-10.9963 83.6732 33.4369 -14.3667 -60.9612 7.223 7.18281 8.81662 -14.6948 1.33632 -7.31426 -4.14866 18.9505 -2.20172 11.9658 -17.0199 -2.65251 17.1874 -0.0 0.0 0.0 -0.0 0.0 0.0 7.75641e-14 -2.27273e-13 2.33232e-13 -27.6234 1.94036 37.017 -21.1334 -52.3839 111.386 -48.1812 -80.3526 -55.8027 -4.62631e-10 4.88235e-09 6.55912e-10 -8.33853e-10 8.02359e-09 1.0845e-09 -4.62629e-10 4.88235e-09 6.55901e-10 7.73091 5.47488 0.417314 -4.62631e-10 4.88234e-09 6.5591e-10 2.90554 0.965183 0.102902 -4.62622e-10 4.88236e-09 6.55908e-10 10.2786 0.731801 0.0259123 -4.62631e-10 4.88235e-09 6.55914e-10 2.22167 -0.733487 -0.20892 7.75292e-14 -2.27273e-13 2.33103e-13 -57.334 -45.4826 -39.7118 16.3865 -9.05123 -30.493 1.14298 -28.853 4.441 4.14366e-10 -4.57612e-09 -6.92983e-10 7.28614e-10 -7.90623e-09 -1.19009e-09 4.14354e-10 -4.57609e-09 -6.92976e-10 -7.73091 5.47488 -0.417314 4.14363e-10 -4.5761e-09 -6.92983e-10 -2.90554 0.965183 -0.102902 4.14353e-10 -4.5761e-09 -6.92979e-10 -10.2786 0.731801 -0.0259123 4.14369e-10 -4.57612e-09 -6.92991e-10 -2.22167 -0.733487 0.20892 -2.03217e-16 0.0 -3.88251e-19 1.33343 -2.39339 14.7237 0.0181944 1.73465 -0.105762 -2.70861 15.5908 6.3365 2.03217e-16 0.0 3.88251e-19 1.57546 16.7061 16.1001 -0.0297249 4.47607 -0.034901 12.1485 -21.6309 39.2747
-11.0408 83.6939 33.4758 -14.4967 -61.1297 7.3281 7.78787 8.89935 -14.9719 1.29648 -7.37388 -4.21774 19.1078 -2.1105 12.1172 -17.2533 -2.92777 17.4255 -0.0 0.0 0.0 -0.0 0.0 0.0 -1.58568e-14 -1.61859e-12 2.95347e-13 -27.4958 2.53924 36.0923 -20.8166 -52.6554 112.194 -48.7518 -80.417 -56.3814 -3.70086e-10 4.1462e-09 5.63019e-10 -6.69752e-10 6.86301e-09 9.33121e-10 -3.70084e-10 4.14621e-09 5.63012e-10 7.73091 5.47488 0.417314 -3.70087e-10 4.1462e-09 5.63018e-10 2.90554 0.965183 0.102902 -3.70077e-10 4.14621e-09 5.63016e-10 10.2786 0.731801 0.0259123 -3.70085e-10 4.14621e-09 5.63024e-10 2.22167 -0.733487 -0.20892 -1.59218e-14 -1.61859e-12 2.9509e-13 -57.3233 -46.0969 -39.0027 16.3893 -9.05383 -30.499 1.12443 -28.643 4.40246 7.31357e-10 -3.9238e-09 -3.68301e-10 1.26725e-09 -6.71172e-09 -6.21734e-10 7.31347e-10 -3.92378e-09 -3.683e-10 -7.73091 5.47488 -0.417314 7.31355e-10 -3.92377e-09 -3.68302e-10 -2.90554 0.965183 -0.102902 7.31346e-10 -3.92379e-09 -3.68301e-10 -10.2786 0.731801 -0.0259123 7.3136e-10 -3.9238e-09 -3.68312e-10 -2.22167 -0.733487 0.20892 -2.03217e-16 0.0 -3.88251e-19 1.73196 -1.98694 14.8518 0.0188645 1.29868 -0.0971818 -2.76312 15.8649 6.49226 2.03217e-16 0.0 3.88251e-19 1.97375 16.9019 16.1359 -0.0279983 4.54977 -0.0173159 12.188 -21.7542 39.4198
-11.0891 83.7125 33.5173 -14.6275 -61.3084 7.4425 8.37331 8.98268 -15.2463 1.28871 -7.46138 -4.28393 19.2435 -2.00575 12.2587 -17.4607 -3.18794 17.6564 -0.0 0.0 0.0 -0.0 0.0 0.0 -1.15242e-13 -3.10638e-12 3.60915e-13 -27.3417 3.23486 35.346 -20.5585 -52.8899 112.841 -48.5655 -80.3985 -56.1928 -2.31707e-10 3.11859e-09 4.32766e-10 -4.24976e-10 5.2393e-09 7.21101e-10 -2.31705e-10 3.1186e-09 4.32762e-10 7.73091 5.47488 0.417314 -2.31707e-10 3.11858e-09 4.32766e-10 2.90554 0.965183 0.102902 -2.31698e-10 3.11859e-09 4.32764e-10 10.2786 0.731801 0.0259123 -2.31705e-10 3.11859e-09 4.32774e-10 2.22167 -0.733487 -0.20892 -1.15338e-13 -3.10638e-12 3.60533e-13 -57.295 -46.6786 -38.2661 16.3932 -9.05758 -30.5073 1.10728 -28.4466 4.36659 1.18353e-09 -3.51737e-09 -7.01014e-12 2.03822e-09 -5.92e-09 1.30888e-11 1.18352e-09 -3.51736e-09 -7.01423e-12 -7.73091 5.47488 -0.417314 1.18353e-09 -3.51734e-09 -7.01289e-12 -2.90554 0.965183 -0.102902 1.18352e-09 -3.51737e-09 -7.0131e-12 -10.2786 0.731801 -0.0259123 1.18354e-09 -3.51737e-09 -7.02462e-12 -2.22167 -0.733487 0.20892 -2.03217e-16 0.0 -3.88251e-19 2.12524 -1.59649 14.976 0.0197006 0.872345 -0.0883761 -2.81119 16.1253 6.62931 2.03217e-16 0.0 3.88251e-19 2.37733 17.0814 16.1625 -0.0264196 4.62302 -0.000628192 12.2148 -21.8673 39.5465
-11.1212 83.7023 33.5515 -14.6373 -61.4421 7.5033 8.80915 9.0286 -15.47 1.36136 -7.58848 -4.3333 19.3186 -1.93977 12.3785 -17.6721 -3.3802 17.863 -0.0 0.0 0.0 -0.0 0.0 0.0 -1.78036e-13 -4.19694e-12 4.15261e-13 -27.2446 3.8602 34.4372 -20.2429 -53.1592 113.622 -48.8899 -80.4358 -56.5219 -1.03158e-10 2.49317e-09 3.72297e-10 -2.01435e-10 4.28107e-09 6.26748e-10 -1.03157e-10 2.49319e-09 3.72293e-10 7.73091 5.47488 0.417314 -1.03159e-10 2.49316e-09 3.72297e-10 2.90554 0.965183 0.102902 -1.0315e-10 2.49317e-09 3.72295e-10 10.2786 0.731801 0.0259123 -1.03157e-10 2.49317e-09 3.72306e-10 2.22167 -0.733487 -0.20892 -1.78149e-13 -4.19694e-12 4.14814e-13 -57.3073 -47.1565 -37.5139 16.411 -9.07468 -30.545 1.0922 -28.2718 4.3348 1.67657e-09 -3.77654e-09 2.6244e-10 2.88183e-09 -6.27441e-09 4.9018e-10 1.67657e-09 -3.77655e-09 2.62434e-10 -7.73091 5.47488 -0.417314 1.67657e-09 -3.77652e-09 2.62437e-10 -2.90554 0.965183 -0.102902 1.67657e-09 -3.77655e-09 2.62436e-10 -10.2786 0.731801 -0.0259123 1.67658e-09 -3.77655e-09 2.62424e-10 -2.22167 -0.733487 0.20892 -2.03217e-16 0.0 -3.88251e-19 2.40241 -1.34794 15.0567 0.020344 0.591632 -0.0824468 -2.84454 16.328 6.71352 2.03217e-16 0.0 3.88251e-19 2.65178 17.2032 16.2012 -0.0253589 4.66282 0.0106731 12.2399 -21.9423 39.6285
